<svg width="392" height="43" viewBox="0 0 392 43" fill="none" xmlns="http://www.w3.org/2000/svg">
<path d="M18.8076 2.62988C20.7949 2.62988 22.7643 2.90739 24.7158 3.4624C26.6852 3.99951 28.5293 4.79622 30.248 5.85254L28.0459 10.1494C26.363 9.23633 24.7785 8.58285 23.2925 8.18896C21.8065 7.77718 20.3115 7.57129 18.8076 7.57129C14.6719 7.57129 11.4761 8.86035 9.22021 11.4385C6.96436 13.9987 5.83643 17.66 5.83643 22.4224C5.83643 27.2205 6.94645 30.9266 9.1665 33.5405C11.3866 36.1366 14.5465 37.4346 18.6465 37.4346C21.9049 37.4346 25.2261 36.6647 28.6099 35.125L30.5435 39.6367C28.7531 40.4782 26.7837 41.1496 24.6353 41.6509C22.4868 42.1343 20.4189 42.376 18.4316 42.376C12.5592 42.376 8.07438 40.6662 4.97705 37.2466C1.87972 33.8091 0.331055 28.8677 0.331055 22.4224C0.331055 18.3224 1.0651 14.7865 2.5332 11.8145C4.0013 8.84245 6.11393 6.56868 8.87109 4.99316C11.6462 3.41764 14.9583 2.62988 18.8076 2.62988ZM47.4893 13.1841C51.7324 13.1841 55.0267 14.4731 57.3721 17.0513C59.7174 19.6115 60.8901 23.2012 60.8901 27.8203C60.8901 32.4395 59.7174 36.0291 57.3721 38.5894C55.0267 41.1496 51.7324 42.4297 47.4893 42.4297C43.2282 42.4297 39.925 41.1496 37.5796 38.5894C35.2342 36.0291 34.0615 32.4395 34.0615 27.8203C34.0615 23.2012 35.2342 19.6115 37.5796 17.0513C39.925 14.4731 43.2282 13.1841 47.4893 13.1841ZM47.4893 17.7495C44.8395 17.7495 42.8164 18.6089 41.4199 20.3276C40.0413 22.0464 39.3521 24.5439 39.3521 27.8203C39.3521 31.0788 40.0413 33.5674 41.4199 35.2861C42.8164 37.0049 44.8395 37.8643 47.4893 37.8643C50.1211 37.8643 52.1353 37.0049 53.5317 35.2861C54.9282 33.5674 55.6265 31.0788 55.6265 27.8203C55.6265 24.5618 54.9282 22.0732 53.5317 20.3545C52.1353 18.6178 50.1211 17.7495 47.4893 17.7495ZM72.5723 17.6421C75.0609 14.7059 78.1761 13.2378 81.918 13.2378C86.2148 13.2378 89.1152 14.9028 90.6191 18.2329C93.1794 14.9028 96.4557 13.2378 100.448 13.2378C103.599 13.2378 105.989 14.0972 107.619 15.8159C109.266 17.5347 110.089 20.068 110.089 23.416V42H104.906V23.792C104.906 21.6973 104.477 20.1755 103.617 19.2266C102.758 18.2777 101.379 17.8032 99.4814 17.8032C97.7985 17.8032 96.2588 18.1702 94.8623 18.9043C93.4658 19.6383 92.3289 20.6857 91.4517 22.0464C91.4517 22.118 91.4696 22.2881 91.5054 22.5566C91.5412 22.8252 91.5591 23.1833 91.5591 23.6309V42H86.376V23.792C86.376 21.6973 85.9463 20.1755 85.0869 19.2266C84.2275 18.2777 82.84 17.8032 80.9243 17.8032C79.313 17.8032 77.7912 18.1792 76.3589 18.9312C74.9445 19.6831 73.8076 20.7036 72.9482 21.9927V42H67.792V13.7212H71.9814L72.5723 17.6421ZM123.275 17.6421C125.764 14.7059 128.879 13.2378 132.621 13.2378C136.918 13.2378 139.818 14.9028 141.322 18.2329C143.882 14.9028 147.159 13.2378 151.151 13.2378C154.302 13.2378 156.693 14.0972 158.322 15.8159C159.969 17.5347 160.792 20.068 160.792 23.416V42H155.609V23.792C155.609 21.6973 155.18 20.1755 154.32 19.2266C153.461 18.2777 152.082 17.8032 150.185 17.8032C148.502 17.8032 146.962 18.1702 145.565 18.9043C144.169 19.6383 143.032 20.6857 142.155 22.0464C142.155 22.118 142.173 22.2881 142.208 22.5566C142.244 22.8252 142.262 23.1833 142.262 23.6309V42H137.079V23.792C137.079 21.6973 136.649 20.1755 135.79 19.2266C134.931 18.2777 133.543 17.8032 131.627 17.8032C130.016 17.8032 128.494 18.1792 127.062 18.9312C125.648 19.6831 124.511 20.7036 123.651 21.9927V42H118.495V13.7212H122.685L123.275 17.6421ZM169.198 3.27441H174.354V8.56494H169.198V3.27441ZM169.198 13.7212H174.354V42H169.198V13.7212ZM198.874 41.0601C196.743 41.9015 194.765 42.3223 192.938 42.3223C190.217 42.3223 188.14 41.624 186.708 40.2275C185.294 38.8132 184.586 36.7453 184.586 34.0239V18.1792H179.645V13.7212H184.855L185.956 5.6377H189.77V13.7212H198.39V18.1792H189.77V33.1914C189.77 34.8027 190.083 35.9575 190.709 36.6558C191.354 37.354 192.41 37.7031 193.878 37.7031C195.167 37.7031 196.51 37.4704 197.907 37.0049L198.874 41.0601ZM234.994 2.62988C236.981 2.62988 238.951 2.90739 240.902 3.4624C242.872 3.99951 244.716 4.79622 246.435 5.85254L244.232 10.1494C242.549 9.23633 240.965 8.58285 239.479 8.18896C237.993 7.77718 236.498 7.57129 234.994 7.57129C230.858 7.57129 227.663 8.86035 225.407 11.4385C223.151 13.9987 222.023 17.66 222.023 22.4224C222.023 27.2205 223.133 30.9266 225.353 33.5405C227.573 36.1366 230.733 37.4346 234.833 37.4346C238.091 37.4346 241.413 36.6647 244.796 35.125L246.73 39.6367C244.94 40.4782 242.97 41.1496 240.822 41.6509C238.673 42.1343 236.605 42.376 234.618 42.376C228.746 42.376 224.261 40.6662 221.164 37.2466C218.066 33.8091 216.518 28.8677 216.518 22.4224C216.518 18.3224 217.252 14.7865 218.72 11.8145C220.188 8.84245 222.3 6.56868 225.058 4.99316C227.833 3.41764 231.145 2.62988 234.994 2.62988ZM263.676 13.1841C267.919 13.1841 271.213 14.4731 273.559 17.0513C275.904 19.6115 277.077 23.2012 277.077 27.8203C277.077 32.4395 275.904 36.0291 273.559 38.5894C271.213 41.1496 267.919 42.4297 263.676 42.4297C259.415 42.4297 256.111 41.1496 253.766 38.5894C251.421 36.0291 250.248 32.4395 250.248 27.8203C250.248 23.2012 251.421 19.6115 253.766 17.0513C256.111 14.4731 259.415 13.1841 263.676 13.1841ZM263.676 17.7495C261.026 17.7495 259.003 18.6089 257.606 20.3276C256.228 22.0464 255.539 24.5439 255.539 27.8203C255.539 31.0788 256.228 33.5674 257.606 35.2861C259.003 37.0049 261.026 37.8643 263.676 37.8643C266.308 37.8643 268.322 37.0049 269.718 35.2861C271.115 33.5674 271.813 31.0788 271.813 27.8203C271.813 24.5618 271.115 22.0732 269.718 20.3545C268.322 18.6178 266.308 17.7495 263.676 17.7495ZM288.759 17.6421C291.247 14.7059 294.363 13.2378 298.104 13.2378C302.401 13.2378 305.302 14.9028 306.806 18.2329C309.366 14.9028 312.642 13.2378 316.635 13.2378C319.786 13.2378 322.176 14.0972 323.805 15.8159C325.452 17.5347 326.276 20.068 326.276 23.416V42H321.093V23.792C321.093 21.6973 320.663 20.1755 319.804 19.2266C318.944 18.2777 317.566 17.8032 315.668 17.8032C313.985 17.8032 312.445 18.1702 311.049 18.9043C309.652 19.6383 308.515 20.6857 307.638 22.0464C307.638 22.118 307.656 22.2881 307.692 22.5566C307.728 22.8252 307.746 23.1833 307.746 23.6309V42H302.562V23.792C302.562 21.6973 302.133 20.1755 301.273 19.2266C300.414 18.2777 299.027 17.8032 297.111 17.8032C295.5 17.8032 293.978 18.1792 292.545 18.9312C291.131 19.6831 289.994 20.7036 289.135 21.9927V42H283.979V13.7212H288.168L288.759 17.6421ZM339.892 16.8633C340.93 15.6995 342.13 14.8044 343.49 14.1777C344.869 13.5511 346.355 13.2378 347.948 13.2378C351.905 13.2378 354.958 14.4642 357.106 16.917C359.272 19.3698 360.355 22.8521 360.355 27.3638C360.355 32.0545 359.075 35.7427 356.515 38.4282C353.955 41.0959 350.401 42.4297 345.854 42.4297C343.902 42.4297 341.906 42.2327 339.865 41.8389C337.842 41.4271 336.132 40.89 334.735 40.2275V0.75H339.892V16.8633ZM347.599 17.8032C345.737 17.8032 344.117 18.2866 342.738 19.2534C341.36 20.2202 340.411 21.5719 339.892 23.3086V36.8169C341.61 37.5151 343.58 37.8643 345.8 37.8643C348.736 37.8643 351.019 36.9422 352.648 35.0981C354.277 33.2541 355.092 30.6759 355.092 27.3638C355.092 24.3201 354.438 21.9658 353.131 20.3008C351.824 18.6357 349.98 17.8032 347.599 17.8032ZM378.51 13.1841C382.753 13.1841 386.047 14.4731 388.393 17.0513C390.738 19.6115 391.911 23.2012 391.911 27.8203C391.911 32.4395 390.738 36.0291 388.393 38.5894C386.047 41.1496 382.753 42.4297 378.51 42.4297C374.249 42.4297 370.945 41.1496 368.6 38.5894C366.255 36.0291 365.082 32.4395 365.082 27.8203C365.082 23.2012 366.255 19.6115 368.6 17.0513C370.945 14.4731 374.249 13.1841 378.51 13.1841ZM378.51 17.7495C375.86 17.7495 373.837 18.6089 372.44 20.3276C371.062 22.0464 370.373 24.5439 370.373 27.8203C370.373 31.0788 371.062 33.5674 372.44 35.2861C373.837 37.0049 375.86 37.8643 378.51 37.8643C381.142 37.8643 383.156 37.0049 384.552 35.2861C385.949 33.5674 386.647 31.0788 386.647 27.8203C386.647 24.5618 385.949 22.0732 384.552 20.3545C383.156 18.6178 381.142 17.7495 378.51 17.7495Z" fill="url(#paint0_linear)"/>
<path d="M18.8076 2.62988C20.7949 2.62988 22.7643 2.90739 24.7158 3.4624C26.6852 3.99951 28.5293 4.79622 30.248 5.85254L28.0459 10.1494C26.363 9.23633 24.7785 8.58285 23.2925 8.18896C21.8065 7.77718 20.3115 7.57129 18.8076 7.57129C14.6719 7.57129 11.4761 8.86035 9.22021 11.4385C6.96436 13.9987 5.83643 17.66 5.83643 22.4224C5.83643 27.2205 6.94645 30.9266 9.1665 33.5405C11.3866 36.1366 14.5465 37.4346 18.6465 37.4346C21.9049 37.4346 25.2261 36.6647 28.6099 35.125L30.5435 39.6367C28.7531 40.4782 26.7837 41.1496 24.6353 41.6509C22.4868 42.1343 20.4189 42.376 18.4316 42.376C12.5592 42.376 8.07438 40.6662 4.97705 37.2466C1.87972 33.8091 0.331055 28.8677 0.331055 22.4224C0.331055 18.3224 1.0651 14.7865 2.5332 11.8145C4.0013 8.84245 6.11393 6.56868 8.87109 4.99316C11.6462 3.41764 14.9583 2.62988 18.8076 2.62988ZM47.4893 13.1841C51.7324 13.1841 55.0267 14.4731 57.3721 17.0513C59.7174 19.6115 60.8901 23.2012 60.8901 27.8203C60.8901 32.4395 59.7174 36.0291 57.3721 38.5894C55.0267 41.1496 51.7324 42.4297 47.4893 42.4297C43.2282 42.4297 39.925 41.1496 37.5796 38.5894C35.2342 36.0291 34.0615 32.4395 34.0615 27.8203C34.0615 23.2012 35.2342 19.6115 37.5796 17.0513C39.925 14.4731 43.2282 13.1841 47.4893 13.1841ZM47.4893 17.7495C44.8395 17.7495 42.8164 18.6089 41.4199 20.3276C40.0413 22.0464 39.3521 24.5439 39.3521 27.8203C39.3521 31.0788 40.0413 33.5674 41.4199 35.2861C42.8164 37.0049 44.8395 37.8643 47.4893 37.8643C50.1211 37.8643 52.1353 37.0049 53.5317 35.2861C54.9282 33.5674 55.6265 31.0788 55.6265 27.8203C55.6265 24.5618 54.9282 22.0732 53.5317 20.3545C52.1353 18.6178 50.1211 17.7495 47.4893 17.7495ZM72.5723 17.6421C75.0609 14.7059 78.1761 13.2378 81.918 13.2378C86.2148 13.2378 89.1152 14.9028 90.6191 18.2329C93.1794 14.9028 96.4557 13.2378 100.448 13.2378C103.599 13.2378 105.989 14.0972 107.619 15.8159C109.266 17.5347 110.089 20.068 110.089 23.416V42H104.906V23.792C104.906 21.6973 104.477 20.1755 103.617 19.2266C102.758 18.2777 101.379 17.8032 99.4814 17.8032C97.7985 17.8032 96.2588 18.1702 94.8623 18.9043C93.4658 19.6383 92.3289 20.6857 91.4517 22.0464C91.4517 22.118 91.4696 22.2881 91.5054 22.5566C91.5412 22.8252 91.5591 23.1833 91.5591 23.6309V42H86.376V23.792C86.376 21.6973 85.9463 20.1755 85.0869 19.2266C84.2275 18.2777 82.84 17.8032 80.9243 17.8032C79.313 17.8032 77.7912 18.1792 76.3589 18.9312C74.9445 19.6831 73.8076 20.7036 72.9482 21.9927V42H67.792V13.7212H71.9814L72.5723 17.6421ZM123.275 17.6421C125.764 14.7059 128.879 13.2378 132.621 13.2378C136.918 13.2378 139.818 14.9028 141.322 18.2329C143.882 14.9028 147.159 13.2378 151.151 13.2378C154.302 13.2378 156.693 14.0972 158.322 15.8159C159.969 17.5347 160.792 20.068 160.792 23.416V42H155.609V23.792C155.609 21.6973 155.18 20.1755 154.32 19.2266C153.461 18.2777 152.082 17.8032 150.185 17.8032C148.502 17.8032 146.962 18.1702 145.565 18.9043C144.169 19.6383 143.032 20.6857 142.155 22.0464C142.155 22.118 142.173 22.2881 142.208 22.5566C142.244 22.8252 142.262 23.1833 142.262 23.6309V42H137.079V23.792C137.079 21.6973 136.649 20.1755 135.79 19.2266C134.931 18.2777 133.543 17.8032 131.627 17.8032C130.016 17.8032 128.494 18.1792 127.062 18.9312C125.648 19.6831 124.511 20.7036 123.651 21.9927V42H118.495V13.7212H122.685L123.275 17.6421ZM169.198 3.27441H174.354V8.56494H169.198V3.27441ZM169.198 13.7212H174.354V42H169.198V13.7212ZM198.874 41.0601C196.743 41.9015 194.765 42.3223 192.938 42.3223C190.217 42.3223 188.14 41.624 186.708 40.2275C185.294 38.8132 184.586 36.7453 184.586 34.0239V18.1792H179.645V13.7212H184.855L185.956 5.6377H189.77V13.7212H198.39V18.1792H189.77V33.1914C189.77 34.8027 190.083 35.9575 190.709 36.6558C191.354 37.354 192.41 37.7031 193.878 37.7031C195.167 37.7031 196.51 37.4704 197.907 37.0049L198.874 41.0601ZM234.994 2.62988C236.981 2.62988 238.951 2.90739 240.902 3.4624C242.872 3.99951 244.716 4.79622 246.435 5.85254L244.232 10.1494C242.549 9.23633 240.965 8.58285 239.479 8.18896C237.993 7.77718 236.498 7.57129 234.994 7.57129C230.858 7.57129 227.663 8.86035 225.407 11.4385C223.151 13.9987 222.023 17.66 222.023 22.4224C222.023 27.2205 223.133 30.9266 225.353 33.5405C227.573 36.1366 230.733 37.4346 234.833 37.4346C238.091 37.4346 241.413 36.6647 244.796 35.125L246.73 39.6367C244.94 40.4782 242.97 41.1496 240.822 41.6509C238.673 42.1343 236.605 42.376 234.618 42.376C228.746 42.376 224.261 40.6662 221.164 37.2466C218.066 33.8091 216.518 28.8677 216.518 22.4224C216.518 18.3224 217.252 14.7865 218.72 11.8145C220.188 8.84245 222.3 6.56868 225.058 4.99316C227.833 3.41764 231.145 2.62988 234.994 2.62988ZM263.676 13.1841C267.919 13.1841 271.213 14.4731 273.559 17.0513C275.904 19.6115 277.077 23.2012 277.077 27.8203C277.077 32.4395 275.904 36.0291 273.559 38.5894C271.213 41.1496 267.919 42.4297 263.676 42.4297C259.415 42.4297 256.111 41.1496 253.766 38.5894C251.421 36.0291 250.248 32.4395 250.248 27.8203C250.248 23.2012 251.421 19.6115 253.766 17.0513C256.111 14.4731 259.415 13.1841 263.676 13.1841ZM263.676 17.7495C261.026 17.7495 259.003 18.6089 257.606 20.3276C256.228 22.0464 255.539 24.5439 255.539 27.8203C255.539 31.0788 256.228 33.5674 257.606 35.2861C259.003 37.0049 261.026 37.8643 263.676 37.8643C266.308 37.8643 268.322 37.0049 269.718 35.2861C271.115 33.5674 271.813 31.0788 271.813 27.8203C271.813 24.5618 271.115 22.0732 269.718 20.3545C268.322 18.6178 266.308 17.7495 263.676 17.7495ZM288.759 17.6421C291.247 14.7059 294.363 13.2378 298.104 13.2378C302.401 13.2378 305.302 14.9028 306.806 18.2329C309.366 14.9028 312.642 13.2378 316.635 13.2378C319.786 13.2378 322.176 14.0972 323.805 15.8159C325.452 17.5347 326.276 20.068 326.276 23.416V42H321.093V23.792C321.093 21.6973 320.663 20.1755 319.804 19.2266C318.944 18.2777 317.566 17.8032 315.668 17.8032C313.985 17.8032 312.445 18.1702 311.049 18.9043C309.652 19.6383 308.515 20.6857 307.638 22.0464C307.638 22.118 307.656 22.2881 307.692 22.5566C307.728 22.8252 307.746 23.1833 307.746 23.6309V42H302.562V23.792C302.562 21.6973 302.133 20.1755 301.273 19.2266C300.414 18.2777 299.027 17.8032 297.111 17.8032C295.5 17.8032 293.978 18.1792 292.545 18.9312C291.131 19.6831 289.994 20.7036 289.135 21.9927V42H283.979V13.7212H288.168L288.759 17.6421ZM339.892 16.8633C340.93 15.6995 342.13 14.8044 343.49 14.1777C344.869 13.5511 346.355 13.2378 347.948 13.2378C351.905 13.2378 354.958 14.4642 357.106 16.917C359.272 19.3698 360.355 22.8521 360.355 27.3638C360.355 32.0545 359.075 35.7427 356.515 38.4282C353.955 41.0959 350.401 42.4297 345.854 42.4297C343.902 42.4297 341.906 42.2327 339.865 41.8389C337.842 41.4271 336.132 40.89 334.735 40.2275V0.75H339.892V16.8633ZM347.599 17.8032C345.737 17.8032 344.117 18.2866 342.738 19.2534C341.36 20.2202 340.411 21.5719 339.892 23.3086V36.8169C341.61 37.5151 343.58 37.8643 345.8 37.8643C348.736 37.8643 351.019 36.9422 352.648 35.0981C354.277 33.2541 355.092 30.6759 355.092 27.3638C355.092 24.3201 354.438 21.9658 353.131 20.3008C351.824 18.6357 349.98 17.8032 347.599 17.8032ZM378.51 13.1841C382.753 13.1841 386.047 14.4731 388.393 17.0513C390.738 19.6115 391.911 23.2012 391.911 27.8203C391.911 32.4395 390.738 36.0291 388.393 38.5894C386.047 41.1496 382.753 42.4297 378.51 42.4297C374.249 42.4297 370.945 41.1496 368.6 38.5894C366.255 36.0291 365.082 32.4395 365.082 27.8203C365.082 23.2012 366.255 19.6115 368.6 17.0513C370.945 14.4731 374.249 13.1841 378.51 13.1841ZM378.51 17.7495C375.86 17.7495 373.837 18.6089 372.44 20.3276C371.062 22.0464 370.373 24.5439 370.373 27.8203C370.373 31.0788 371.062 33.5674 372.44 35.2861C373.837 37.0049 375.86 37.8643 378.51 37.8643C381.142 37.8643 383.156 37.0049 384.552 35.2861C385.949 33.5674 386.647 31.0788 386.647 27.8203C386.647 24.5618 385.949 22.0732 384.552 20.3545C383.156 18.6178 381.142 17.7495 378.51 17.7495Z" fill="url(#paint1_linear)"/>
<defs>
<linearGradient id="paint0_linear" x1="404" y1="45.5406" x2="123.212" y2="-168.451" gradientUnits="userSpaceOnUse">
<stop stop-color="#FE174A"/>
<stop offset="1" stop-color="#D602F5"/>
</linearGradient>
<linearGradient id="paint1_linear" x1="-0.888889" y1="53" x2="399.719" y2="-29.7289" gradientUnits="userSpaceOnUse">
<stop stop-color="#FFBC50"/>
<stop offset="1" stop-color="#AA31BD"/>
</linearGradient>
</defs>
</svg>
