<svg width="784" height="84" viewBox="0 0 784 84" fill="none" xmlns="http://www.w3.org/2000/svg">
<path d="M37.6152 4.25977C41.5898 4.25977 45.5286 4.81478 49.4316 5.9248C53.3704 6.99902 57.0586 8.59245 60.4961 10.7051L56.0918 19.2988C52.7259 17.4727 49.557 16.1657 46.585 15.3779C43.613 14.5544 40.623 14.1426 37.6152 14.1426C29.3438 14.1426 22.9521 16.7207 18.4404 21.877C13.9287 26.9974 11.6729 34.32 11.6729 43.8447C11.6729 53.4411 13.8929 60.8532 18.333 66.0811C22.7731 71.2731 29.0931 73.8691 37.293 73.8691C43.8099 73.8691 50.4521 72.3294 57.2197 69.25L61.0869 78.2734C57.5062 79.9564 53.5674 81.2992 49.2705 82.3018C44.9736 83.2686 40.8379 83.752 36.8633 83.752C25.1185 83.752 16.1488 80.3324 9.9541 73.4932C3.75944 66.6182 0.662109 56.7354 0.662109 43.8447C0.662109 35.6449 2.13021 28.5729 5.06641 22.6289C8.0026 16.6849 12.2279 12.1374 17.7422 8.98633C23.2923 5.83529 29.9167 4.25977 37.6152 4.25977ZM94.9785 25.3682C103.465 25.3682 110.053 27.9463 114.744 33.1025C119.435 38.223 121.78 45.4023 121.78 54.6406C121.78 63.8789 119.435 71.0583 114.744 76.1787C110.053 81.2992 103.465 83.8594 94.9785 83.8594C86.4564 83.8594 79.8499 81.2992 75.1592 76.1787C70.4684 71.0583 68.123 63.8789 68.123 54.6406C68.123 45.4023 70.4684 38.223 75.1592 33.1025C79.8499 27.9463 86.4564 25.3682 94.9785 25.3682ZM94.9785 34.499C89.679 34.499 85.6328 36.2178 82.8398 39.6553C80.0827 43.0928 78.7041 48.0879 78.7041 54.6406C78.7041 61.1576 80.0827 66.1348 82.8398 69.5723C85.6328 73.0098 89.679 74.7285 94.9785 74.7285C100.242 74.7285 104.271 73.0098 107.063 69.5723C109.856 66.1348 111.253 61.1576 111.253 54.6406C111.253 48.1237 109.856 43.1465 107.063 39.709C104.271 36.2357 100.242 34.499 94.9785 34.499ZM145.145 34.2842C150.122 28.4118 156.352 25.4756 163.836 25.4756C172.43 25.4756 178.23 28.8057 181.238 35.4658C186.359 28.8057 192.911 25.4756 200.896 25.4756C207.199 25.4756 211.979 27.1943 215.237 30.6318C218.532 34.0693 220.179 39.1361 220.179 45.832V83H209.812V46.584C209.812 42.3945 208.953 39.3509 207.234 37.4531C205.516 35.5553 202.758 34.6064 198.963 34.6064C195.597 34.6064 192.518 35.3405 189.725 36.8086C186.932 38.2767 184.658 40.3714 182.903 43.0928C182.903 43.236 182.939 43.5762 183.011 44.1133C183.082 44.6504 183.118 45.3665 183.118 46.2617V83H172.752V46.584C172.752 42.3945 171.893 39.3509 170.174 37.4531C168.455 35.5553 165.68 34.6064 161.849 34.6064C158.626 34.6064 155.582 35.3584 152.718 36.8623C149.889 38.3662 147.615 40.4072 145.896 42.9854V83H135.584V26.4424H143.963L145.145 34.2842ZM246.551 34.2842C251.528 28.4118 257.758 25.4756 265.242 25.4756C273.836 25.4756 279.637 28.8057 282.645 35.4658C287.765 28.8057 294.318 25.4756 302.303 25.4756C308.605 25.4756 313.385 27.1943 316.644 30.6318C319.938 34.0693 321.585 39.1361 321.585 45.832V83H311.219V46.584C311.219 42.3945 310.359 39.3509 308.641 37.4531C306.922 35.5553 304.165 34.6064 300.369 34.6064C297.003 34.6064 293.924 35.3405 291.131 36.8086C288.338 38.2767 286.064 40.3714 284.31 43.0928C284.31 43.236 284.345 43.5762 284.417 44.1133C284.489 44.6504 284.524 45.3665 284.524 46.2617V83H274.158V46.584C274.158 42.3945 273.299 39.3509 271.58 37.4531C269.861 35.5553 267.086 34.6064 263.255 34.6064C260.032 34.6064 256.989 35.3584 254.124 36.8623C251.295 38.3662 249.021 40.4072 247.303 42.9854V83H236.99V26.4424H245.369L246.551 34.2842ZM338.396 5.54883H348.709V16.1299H338.396V5.54883ZM338.396 26.4424H348.709V83H338.396V26.4424ZM397.747 81.1201C393.486 82.8031 389.529 83.6445 385.877 83.6445C380.434 83.6445 376.281 82.248 373.416 79.4551C370.587 76.6263 369.173 72.4906 369.173 67.0479V35.3584H359.29V26.4424H369.71L371.912 10.2754H379.539V26.4424H396.78V35.3584H379.539V65.3828C379.539 68.6055 380.166 70.915 381.419 72.3115C382.708 73.708 384.821 74.4062 387.757 74.4062C390.335 74.4062 393.021 73.9408 395.813 73.0098L397.747 81.1201ZM469.988 4.25977C473.963 4.25977 477.902 4.81478 481.805 5.9248C485.743 6.99902 489.432 8.59245 492.869 10.7051L488.465 19.2988C485.099 17.4727 481.93 16.1657 478.958 15.3779C475.986 14.5544 472.996 14.1426 469.988 14.1426C461.717 14.1426 455.325 16.7207 450.813 21.877C446.302 26.9974 444.046 34.32 444.046 43.8447C444.046 53.4411 446.266 60.8532 450.706 66.0811C455.146 71.2731 461.466 73.8691 469.666 73.8691C476.183 73.8691 482.825 72.3294 489.593 69.25L493.46 78.2734C489.879 79.9564 485.94 81.2992 481.644 82.3018C477.347 83.2686 473.211 83.752 469.236 83.752C457.492 83.752 448.522 80.3324 442.327 73.4932C436.132 66.6182 433.035 56.7354 433.035 43.8447C433.035 35.6449 434.503 28.5729 437.439 22.6289C440.376 16.6849 444.601 12.1374 450.115 8.98633C455.665 5.83529 462.29 4.25977 469.988 4.25977ZM527.352 25.3682C535.838 25.3682 542.426 27.9463 547.117 33.1025C551.808 38.223 554.153 45.4023 554.153 54.6406C554.153 63.8789 551.808 71.0583 547.117 76.1787C542.426 81.2992 535.838 83.8594 527.352 83.8594C518.829 83.8594 512.223 81.2992 507.532 76.1787C502.841 71.0583 500.496 63.8789 500.496 54.6406C500.496 45.4023 502.841 38.223 507.532 33.1025C512.223 27.9463 518.829 25.3682 527.352 25.3682ZM527.352 34.499C522.052 34.499 518.006 36.2178 515.213 39.6553C512.456 43.0928 511.077 48.0879 511.077 54.6406C511.077 61.1576 512.456 66.1348 515.213 69.5723C518.006 73.0098 522.052 74.7285 527.352 74.7285C532.615 74.7285 536.644 73.0098 539.437 69.5723C542.229 66.1348 543.626 61.1576 543.626 54.6406C543.626 48.1237 542.229 43.1465 539.437 39.709C536.644 36.2357 532.615 34.499 527.352 34.499ZM577.518 34.2842C582.495 28.4118 588.725 25.4756 596.209 25.4756C604.803 25.4756 610.604 28.8057 613.611 35.4658C618.732 28.8057 625.285 25.4756 633.27 25.4756C639.572 25.4756 644.352 27.1943 647.61 30.6318C650.905 34.0693 652.552 39.1361 652.552 45.832V83H642.186V46.584C642.186 42.3945 641.326 39.3509 639.607 37.4531C637.889 35.5553 635.132 34.6064 631.336 34.6064C627.97 34.6064 624.891 35.3405 622.098 36.8086C619.305 38.2767 617.031 40.3714 615.276 43.0928C615.276 43.236 615.312 43.5762 615.384 44.1133C615.455 44.6504 615.491 45.3665 615.491 46.2617V83H605.125V46.584C605.125 42.3945 604.266 39.3509 602.547 37.4531C600.828 35.5553 598.053 34.6064 594.222 34.6064C590.999 34.6064 587.955 35.3584 585.091 36.8623C582.262 38.3662 579.988 40.4072 578.27 42.9854V83H567.957V26.4424H576.336L577.518 34.2842ZM679.783 32.7266C681.86 30.3991 684.259 28.6087 686.98 27.3555C689.738 26.1022 692.71 25.4756 695.896 25.4756C703.81 25.4756 709.915 27.9284 714.212 32.834C718.545 37.7396 720.711 44.7041 720.711 53.7275C720.711 63.109 718.151 70.4854 713.03 75.8564C707.91 81.1917 700.802 83.8594 691.707 83.8594C687.804 83.8594 683.812 83.4655 679.729 82.6777C675.683 81.8542 672.264 80.7799 669.471 79.4551V0.5H679.783V32.7266ZM695.198 34.6064C691.474 34.6064 688.234 35.5732 685.477 37.5068C682.719 39.4404 680.822 42.1439 679.783 45.6172V72.6338C683.221 74.0303 687.16 74.7285 691.6 74.7285C697.472 74.7285 702.037 72.8844 705.296 69.1963C708.554 65.5081 710.184 60.3519 710.184 53.7275C710.184 47.6403 708.877 42.9316 706.263 39.6016C703.649 36.2715 699.961 34.6064 695.198 34.6064ZM757.02 25.3682C765.506 25.3682 772.094 27.9463 776.785 33.1025C781.476 38.223 783.821 45.4023 783.821 54.6406C783.821 63.8789 781.476 71.0583 776.785 76.1787C772.094 81.2992 765.506 83.8594 757.02 83.8594C748.497 83.8594 741.891 81.2992 737.2 76.1787C732.509 71.0583 730.164 63.8789 730.164 54.6406C730.164 45.4023 732.509 38.223 737.2 33.1025C741.891 27.9463 748.497 25.3682 757.02 25.3682ZM757.02 34.499C751.72 34.499 747.674 36.2178 744.881 39.6553C742.124 43.0928 740.745 48.0879 740.745 54.6406C740.745 61.1576 742.124 66.1348 744.881 69.5723C747.674 73.0098 751.72 74.7285 757.02 74.7285C762.283 74.7285 766.312 73.0098 769.104 69.5723C771.897 66.1348 773.294 61.1576 773.294 54.6406C773.294 48.1237 771.897 43.1465 769.104 39.709C766.312 36.2357 762.283 34.499 757.02 34.499Z" fill="url(#paint0_linear)"/>
<path d="M37.6152 4.25977C41.5898 4.25977 45.5286 4.81478 49.4316 5.9248C53.3704 6.99902 57.0586 8.59245 60.4961 10.7051L56.0918 19.2988C52.7259 17.4727 49.557 16.1657 46.585 15.3779C43.613 14.5544 40.623 14.1426 37.6152 14.1426C29.3438 14.1426 22.9521 16.7207 18.4404 21.877C13.9287 26.9974 11.6729 34.32 11.6729 43.8447C11.6729 53.4411 13.8929 60.8532 18.333 66.0811C22.7731 71.2731 29.0931 73.8691 37.293 73.8691C43.8099 73.8691 50.4521 72.3294 57.2197 69.25L61.0869 78.2734C57.5062 79.9564 53.5674 81.2992 49.2705 82.3018C44.9736 83.2686 40.8379 83.752 36.8633 83.752C25.1185 83.752 16.1488 80.3324 9.9541 73.4932C3.75944 66.6182 0.662109 56.7354 0.662109 43.8447C0.662109 35.6449 2.13021 28.5729 5.06641 22.6289C8.0026 16.6849 12.2279 12.1374 17.7422 8.98633C23.2923 5.83529 29.9167 4.25977 37.6152 4.25977ZM94.9785 25.3682C103.465 25.3682 110.053 27.9463 114.744 33.1025C119.435 38.223 121.78 45.4023 121.78 54.6406C121.78 63.8789 119.435 71.0583 114.744 76.1787C110.053 81.2992 103.465 83.8594 94.9785 83.8594C86.4564 83.8594 79.8499 81.2992 75.1592 76.1787C70.4684 71.0583 68.123 63.8789 68.123 54.6406C68.123 45.4023 70.4684 38.223 75.1592 33.1025C79.8499 27.9463 86.4564 25.3682 94.9785 25.3682ZM94.9785 34.499C89.679 34.499 85.6328 36.2178 82.8398 39.6553C80.0827 43.0928 78.7041 48.0879 78.7041 54.6406C78.7041 61.1576 80.0827 66.1348 82.8398 69.5723C85.6328 73.0098 89.679 74.7285 94.9785 74.7285C100.242 74.7285 104.271 73.0098 107.063 69.5723C109.856 66.1348 111.253 61.1576 111.253 54.6406C111.253 48.1237 109.856 43.1465 107.063 39.709C104.271 36.2357 100.242 34.499 94.9785 34.499ZM145.145 34.2842C150.122 28.4118 156.352 25.4756 163.836 25.4756C172.43 25.4756 178.23 28.8057 181.238 35.4658C186.359 28.8057 192.911 25.4756 200.896 25.4756C207.199 25.4756 211.979 27.1943 215.237 30.6318C218.532 34.0693 220.179 39.1361 220.179 45.832V83H209.812V46.584C209.812 42.3945 208.953 39.3509 207.234 37.4531C205.516 35.5553 202.758 34.6064 198.963 34.6064C195.597 34.6064 192.518 35.3405 189.725 36.8086C186.932 38.2767 184.658 40.3714 182.903 43.0928C182.903 43.236 182.939 43.5762 183.011 44.1133C183.082 44.6504 183.118 45.3665 183.118 46.2617V83H172.752V46.584C172.752 42.3945 171.893 39.3509 170.174 37.4531C168.455 35.5553 165.68 34.6064 161.849 34.6064C158.626 34.6064 155.582 35.3584 152.718 36.8623C149.889 38.3662 147.615 40.4072 145.896 42.9854V83H135.584V26.4424H143.963L145.145 34.2842ZM246.551 34.2842C251.528 28.4118 257.758 25.4756 265.242 25.4756C273.836 25.4756 279.637 28.8057 282.645 35.4658C287.765 28.8057 294.318 25.4756 302.303 25.4756C308.605 25.4756 313.385 27.1943 316.644 30.6318C319.938 34.0693 321.585 39.1361 321.585 45.832V83H311.219V46.584C311.219 42.3945 310.359 39.3509 308.641 37.4531C306.922 35.5553 304.165 34.6064 300.369 34.6064C297.003 34.6064 293.924 35.3405 291.131 36.8086C288.338 38.2767 286.064 40.3714 284.31 43.0928C284.31 43.236 284.345 43.5762 284.417 44.1133C284.489 44.6504 284.524 45.3665 284.524 46.2617V83H274.158V46.584C274.158 42.3945 273.299 39.3509 271.58 37.4531C269.861 35.5553 267.086 34.6064 263.255 34.6064C260.032 34.6064 256.989 35.3584 254.124 36.8623C251.295 38.3662 249.021 40.4072 247.303 42.9854V83H236.99V26.4424H245.369L246.551 34.2842ZM338.396 5.54883H348.709V16.1299H338.396V5.54883ZM338.396 26.4424H348.709V83H338.396V26.4424ZM397.747 81.1201C393.486 82.8031 389.529 83.6445 385.877 83.6445C380.434 83.6445 376.281 82.248 373.416 79.4551C370.587 76.6263 369.173 72.4906 369.173 67.0479V35.3584H359.29V26.4424H369.71L371.912 10.2754H379.539V26.4424H396.78V35.3584H379.539V65.3828C379.539 68.6055 380.166 70.915 381.419 72.3115C382.708 73.708 384.821 74.4062 387.757 74.4062C390.335 74.4062 393.021 73.9408 395.813 73.0098L397.747 81.1201ZM469.988 4.25977C473.963 4.25977 477.902 4.81478 481.805 5.9248C485.743 6.99902 489.432 8.59245 492.869 10.7051L488.465 19.2988C485.099 17.4727 481.93 16.1657 478.958 15.3779C475.986 14.5544 472.996 14.1426 469.988 14.1426C461.717 14.1426 455.325 16.7207 450.813 21.877C446.302 26.9974 444.046 34.32 444.046 43.8447C444.046 53.4411 446.266 60.8532 450.706 66.0811C455.146 71.2731 461.466 73.8691 469.666 73.8691C476.183 73.8691 482.825 72.3294 489.593 69.25L493.46 78.2734C489.879 79.9564 485.94 81.2992 481.644 82.3018C477.347 83.2686 473.211 83.752 469.236 83.752C457.492 83.752 448.522 80.3324 442.327 73.4932C436.132 66.6182 433.035 56.7354 433.035 43.8447C433.035 35.6449 434.503 28.5729 437.439 22.6289C440.376 16.6849 444.601 12.1374 450.115 8.98633C455.665 5.83529 462.29 4.25977 469.988 4.25977ZM527.352 25.3682C535.838 25.3682 542.426 27.9463 547.117 33.1025C551.808 38.223 554.153 45.4023 554.153 54.6406C554.153 63.8789 551.808 71.0583 547.117 76.1787C542.426 81.2992 535.838 83.8594 527.352 83.8594C518.829 83.8594 512.223 81.2992 507.532 76.1787C502.841 71.0583 500.496 63.8789 500.496 54.6406C500.496 45.4023 502.841 38.223 507.532 33.1025C512.223 27.9463 518.829 25.3682 527.352 25.3682ZM527.352 34.499C522.052 34.499 518.006 36.2178 515.213 39.6553C512.456 43.0928 511.077 48.0879 511.077 54.6406C511.077 61.1576 512.456 66.1348 515.213 69.5723C518.006 73.0098 522.052 74.7285 527.352 74.7285C532.615 74.7285 536.644 73.0098 539.437 69.5723C542.229 66.1348 543.626 61.1576 543.626 54.6406C543.626 48.1237 542.229 43.1465 539.437 39.709C536.644 36.2357 532.615 34.499 527.352 34.499ZM577.518 34.2842C582.495 28.4118 588.725 25.4756 596.209 25.4756C604.803 25.4756 610.604 28.8057 613.611 35.4658C618.732 28.8057 625.285 25.4756 633.27 25.4756C639.572 25.4756 644.352 27.1943 647.61 30.6318C650.905 34.0693 652.552 39.1361 652.552 45.832V83H642.186V46.584C642.186 42.3945 641.326 39.3509 639.607 37.4531C637.889 35.5553 635.132 34.6064 631.336 34.6064C627.97 34.6064 624.891 35.3405 622.098 36.8086C619.305 38.2767 617.031 40.3714 615.276 43.0928C615.276 43.236 615.312 43.5762 615.384 44.1133C615.455 44.6504 615.491 45.3665 615.491 46.2617V83H605.125V46.584C605.125 42.3945 604.266 39.3509 602.547 37.4531C600.828 35.5553 598.053 34.6064 594.222 34.6064C590.999 34.6064 587.955 35.3584 585.091 36.8623C582.262 38.3662 579.988 40.4072 578.27 42.9854V83H567.957V26.4424H576.336L577.518 34.2842ZM679.783 32.7266C681.86 30.3991 684.259 28.6087 686.98 27.3555C689.738 26.1022 692.71 25.4756 695.896 25.4756C703.81 25.4756 709.915 27.9284 714.212 32.834C718.545 37.7396 720.711 44.7041 720.711 53.7275C720.711 63.109 718.151 70.4854 713.03 75.8564C707.91 81.1917 700.802 83.8594 691.707 83.8594C687.804 83.8594 683.812 83.4655 679.729 82.6777C675.683 81.8542 672.264 80.7799 669.471 79.4551V0.5H679.783V32.7266ZM695.198 34.6064C691.474 34.6064 688.234 35.5732 685.477 37.5068C682.719 39.4404 680.822 42.1439 679.783 45.6172V72.6338C683.221 74.0303 687.16 74.7285 691.6 74.7285C697.472 74.7285 702.037 72.8844 705.296 69.1963C708.554 65.5081 710.184 60.3519 710.184 53.7275C710.184 47.6403 708.877 42.9316 706.263 39.6016C703.649 36.2715 699.961 34.6064 695.198 34.6064ZM757.02 25.3682C765.506 25.3682 772.094 27.9463 776.785 33.1025C781.476 38.223 783.821 45.4023 783.821 54.6406C783.821 63.8789 781.476 71.0583 776.785 76.1787C772.094 81.2992 765.506 83.8594 757.02 83.8594C748.497 83.8594 741.891 81.2992 737.2 76.1787C732.509 71.0583 730.164 63.8789 730.164 54.6406C730.164 45.4023 732.509 38.223 737.2 33.1025C741.891 27.9463 748.497 25.3682 757.02 25.3682ZM757.02 34.499C751.72 34.499 747.674 36.2178 744.881 39.6553C742.124 43.0928 740.745 48.0879 740.745 54.6406C740.745 61.1576 742.124 66.1348 744.881 69.5723C747.674 73.0098 751.72 74.7285 757.02 74.7285C762.283 74.7285 766.312 73.0098 769.104 69.5723C771.897 66.1348 773.294 61.1576 773.294 54.6406C773.294 48.1237 771.897 43.1465 769.104 39.709C766.312 36.2357 762.283 34.499 757.02 34.499Z" fill="url(#paint1_linear)"/>
<defs>
<linearGradient id="paint0_linear" x1="790" y1="287" x2="-42.7156" y2="169.362" gradientUnits="userSpaceOnUse">
<stop stop-color="#FE174A"/>
<stop offset="1" stop-color="#D602F5"/>
</linearGradient>
<linearGradient id="paint1_linear" x1="15.2607" y1="364" x2="813.33" y2="333.45" gradientUnits="userSpaceOnUse">
<stop stop-color="#FFBC50"/>
<stop offset="1" stop-color="#AA31BD"/>
</linearGradient>
</defs>
</svg>
